# xmcd
#
# Track frame offsets:
#	150
#	21202
#	53087
#	74260
#	91147
#	120150
#	144605
#
# Disc length: 2201 seconds
#
# Revision: 1
# Processed by: cddbd v1.5.1PL0 Copyright (c) Steve Scherf et al.
# Submitted via: CDex 1.50Beta5
#
DISCID=54089707
DTITLE=Akiko - CRAZY ABOUT “U” Remix
DYEAR=1995
DGENRE=Rock
TTITLE0=CRAZY ABOUT YOU
TTITLE1=CRAZY ABOUT YOU
TTITLE2=CRAZY ABOUT YOU
TTITLE3=CRAZY ABOUT YOU
TTITLE4=CRAZY ABOUT YOU
TTITLE5=All Through The Night
TTITLE6=CRAZY ABOUT YOU
EXTD=
EXTT0=
EXTT1=
EXTT2=
EXTT3=
EXTT4=
EXTT5=
EXTT6=
PLAYORDER=
